<svg xmlns="http://www.w3.org/2000/svg" width="171.035" height="25.081" viewBox="0 0 171.035 25.081"><g id="Group_1" data-name="Group 1" transform="translate(1743.747 193.412)"><path id="Path_1" data-name="Path 1" d="M-1675.329-175.37c-1.277,4.293,1.215,6.976,6.532,6.976,5.242,0,9.52-2.717,10.7-6.808a4.344,4.344,0,0,0-.764-4.327c-.83-.939-2.052-1.576-4.563-2.482a14.136,14.136,0,0,1-2.643-1.107,1.707,1.707,0,0,1-.947-2.113,3.727,3.727,0,0,1,3.792-2.348c2.051,0,2.853.905,2.5,2.784h5.241c.822-4.293-1.633-6.842-6.57-6.842-4.976,0-9.14,2.717-10.312,6.775-.988,3.421.455,5.266,5.5,7.01a7.872,7.872,0,0,1,2.718,1.241,1.626,1.626,0,0,1,.512,1.777c-.387,1.342-2.131,2.381-4.03,2.381-1.975,0-3.137-1.107-2.7-2.616l.087-.3Z" transform="translate(-41.067 -0.745)" fill="#ffcb03"></path><path id="Path_2" data-name="Path 2" d="M-1611.184-174.437c-5.7,0-10.587,3.387-12.011,8.318-1.394,4.83,1.6,8.284,7.142,8.284,5.393,0,10.645-3.589,11.962-8.15,1.414-4.9-1.548-8.452-7.093-8.452Zm-1.1,3.823c2.886,0,4.168,1.744,3.355,4.561a6.248,6.248,0,0,1-5.988,4.428c-2.81,0-4.187-1.811-3.412-4.495a6.183,6.183,0,0,1,6.045-4.494Z" transform="translate(-72.76 -11.203)" fill="#ffcb03"></path><path id="Path_3" data-name="Path 3" d="M-1565.6-168.154l6.458-22.371h-4.823l-6.459,22.371Z" transform="translate(-105.053 -1.421)" fill="#ffcb03"></path><path id="Path_4" data-name="Path 4" d="M-1527.395-171.922a5.319,5.319,0,0,0-5.009-2.515,11.982,11.982,0,0,0-11.3,8.485c-1.366,4.729,1.189,8.117,6.126,8.117a10.085,10.085,0,0,0,6.889-2.683l-.62,2.147h4.824L-1522-173.9h-4.824l-.572,1.979Zm-5.057,1.074c2.849,0,4.262,1.945,3.468,4.7a7.021,7.021,0,0,1-6.275,4.9c-2.621,0-4.043-2.046-3.259-4.763a6.5,6.5,0,0,1,6.066-4.83Z" transform="translate(-121.08 -11.203)" fill="#ffcb03"></path><path id="Path_5" data-name="Path 5" d="M-1482.606-173.9l-4.483,15.529h4.823l2.159-7.479a5.269,5.269,0,0,1,1.545-2.851,5.481,5.481,0,0,1,3.635-1.409c.266,0,.636.034,1.006.067l1.259-4.36a4.077,4.077,0,0,0-.56-.033,6.758,6.758,0,0,0-3.062.738,5.931,5.931,0,0,0-2.158,2.08l.658-2.281Z" transform="translate(-155.726 -11.203)" fill="#ffcb03"></path><path id="Path_6" data-name="Path 6" d="M-1446.1-183.63h-4.823L-1455.4-168.1h4.823l4.483-15.529Zm-.427-6.809a3.518,3.518,0,0,0-3.384,2.382c-.387,1.341.462,2.347,2.019,2.347a3.493,3.493,0,0,0,3.327-2.314c.406-1.409-.4-2.415-1.962-2.415Z" transform="translate(-174.993 -1.473)" fill="#ffcb03"></path><path id="Path_7" data-name="Path 7" d="M-1421.607-178.195h2.659l.649-2.247h-2.659l1.4-4.863h-2.886l-1.4,4.863h-2.431l-.649,2.247h2.431l-3.118,10.8c-.494,1.71.138,2.415,2.151,2.415h2.7l.639-2.214h-1.329c-1.025,0-1.271-.2-1.058-.939l2.9-10.062Z" transform="translate(-191.794 -4.595)" fill="#fff"></path><path id="Path_8" data-name="Path 8" d="M-1386.422-164.917c.144-.369.27-.8.328-1.006,1.307-4.528-1.513-7.915-6.6-7.915a11.646,11.646,0,0,0-11.165,8.15c-1.355,4.7,1.4,8.05,6.6,8.05a12.088,12.088,0,0,0,8.987-4.159l-2.3-.838a8.558,8.558,0,0,1-6.006,2.65,4.361,4.361,0,0,1-4.1-2.113,3.661,3.661,0,0,1-.326-2.817Zm-14-1.878a8.043,8.043,0,0,1,1.743-2.616,7.909,7.909,0,0,1,5.329-2.147,4.621,4.621,0,0,1,4.213,2.113,3.687,3.687,0,0,1,.223,2.65Z" transform="translate(-206.124 -11.568)" fill="#fff"></path><path id="Path_9" data-name="Path 9" d="M-1339.558-161.663a8.5,8.5,0,0,1-4.966,1.677c-3.419,0-5.124-2.381-4.136-5.8a7.863,7.863,0,0,1,7.5-5.7,5.239,5.239,0,0,1,3.979,1.61l2.335-1.643a7.039,7.039,0,0,0-5.713-2.314,11.52,11.52,0,0,0-11.088,8.15c-1.356,4.7,1.247,8.05,6.26,8.05a12.386,12.386,0,0,0,7.115-2.281l-1.282-1.744Z" transform="translate(-237.862 -11.568)" fill="#fff"></path><path id="Path_10" data-name="Path 10" d="M-1731.246-192.862a11.977,11.977,0,0,1,11.951,11.991,11.977,11.977,0,0,1-11.951,11.991,11.977,11.977,0,0,1-11.951-11.991,11.977,11.977,0,0,1,11.951-11.991Z" fill="none" stroke="#ffcb03" stroke-linecap="round" stroke-linejoin="round" stroke-width="1.1" fill-rule="evenodd"></path><path id="Path_11" data-name="Path 11" d="M-1727.226-172.458a.633.633,0,0,1,.552-.411h3.141a.284.284,0,0,1,.27.411l-1.085,3.173a.632.632,0,0,1-.552.411h-3.141a.284.284,0,0,1-.271-.411l1.085-3.173Z" transform="translate(-9.037 -12.157)" fill="#fff" fill-rule="evenodd"></path><path id="Path_12" data-name="Path 12" d="M-1716.3-172.458a.632.632,0,0,1,.552-.411h3.141a.284.284,0,0,1,.271.411l-1.085,3.173a.633.633,0,0,1-.552.411h-3.141a.284.284,0,0,1-.27-.411l1.085-3.173Z" transform="translate(-15.681 -12.157)" fill="#fff" fill-rule="evenodd"></path><path id="Path_13" data-name="Path 13" d="M-1720.111-161.463a.62.62,0,0,1,.54-.4h3.158a.278.278,0,0,1,.265.4l-1.091,3.191a.62.62,0,0,1-.54.4h-3.159a.278.278,0,0,1-.265-.4l1.091-3.191Z" transform="translate(-13.36 -18.848)" fill="#fff" fill-rule="evenodd"></path><path id="Path_14" data-name="Path 14" d="M-1705.2-172.317a.636.636,0,0,1,.554-.413h3.137a.285.285,0,0,1,.272.413l-1.084,3.169a.635.635,0,0,1-.554.413h-3.137a.285.285,0,0,1-.272-.413l1.084-3.169Z" transform="translate(-22.431 -12.241)" fill="#fff" fill-rule="evenodd"></path><path id="Path_15" data-name="Path 15" d="M-1730.989-161.462a.62.62,0,0,1,.542-.4h3.156a.279.279,0,0,1,.266.4l-1.09,3.189a.621.621,0,0,1-.541.4h-3.156a.279.279,0,0,1-.266-.4l1.09-3.189Z" transform="translate(-6.746 -18.848)" fill="#fff" fill-rule="evenodd"></path><path id="Path_16" data-name="Path 16" d="M-1706.277-161.838a1.929,1.929,0,0,0-1.935,1.987,2.043,2.043,0,0,0,2.029,1.987,1.929,1.929,0,0,0,1.935-1.987,2.043,2.043,0,0,0-2.029-1.987Z" transform="translate(-21.272 -18.864)" fill="#ffcb03" fill-rule="evenodd"></path></g></svg>