<?xml version="1.0" encoding="utf-8"?>
<!-- Generator: Adobe Illustrator 21.1.0, SVG Export Plug-In . SVG Version: 6.00 Build 0)  -->
<svg version="1.1" id="Ebene_1" xmlns="http://www.w3.org/2000/svg" xmlns:xlink="http://www.w3.org/1999/xlink" x="0px" y="0px"
	 viewBox="0 0 200 50" style="enable-background:new 0 0 200 50;" xml:space="preserve">
<style type="text/css">
	.st0{fill:#32A4DE;}
	.st1{fill:#FFFFFF;stroke:#FFFFFF;stroke-width:0.5;stroke-linecap:round;stroke-miterlimit:10;}
	.st2{fill:#FFFFFF;}
	.st3{fill:#454444;}
	.st4{fill:#858584;}
</style>
<g>
	<circle class="st0" cx="16.6" cy="25.1" r="14"/>
	<path class="st1" d="M17.9,15.3c0.2,0.1-3.1,2.8-3.1,2.8l0,1.3l-2.4,1.2L12,18.6C12,18.6,17.7,15.2,17.9,15.3z"/>
	<polygon class="st2" points="12.4,21.5 10.2,26.6 14.7,26.6 15.2,24 20.6,21.5 20.1,20.5 	"/>
	<path class="st2" d="M20,22.8c0,0-2.4,3.2,0,3.2C22.4,26.1,20,22.8,20,22.8z"/>
	<path class="st3" d="M49,21.6c0.5-0.8,1.1-1.4,1.9-1.8c0.8-0.5,1.7-0.8,2.6-1c1-0.2,2-0.3,2.9-0.3c0.9,0,1.8,0.1,2.7,0.2
		c0.9,0.1,1.8,0.4,2.5,0.7c0.8,0.4,1.4,0.9,1.9,1.5c0.5,0.7,0.7,1.5,0.7,2.6v9.3c0,0.8,0,1.6,0.1,2.3c0.1,0.7,0.3,1.3,0.5,1.7h-5
		c-0.1-0.3-0.2-0.6-0.2-0.8c-0.1-0.3-0.1-0.6-0.1-0.9c-0.8,0.8-1.7,1.4-2.8,1.7c-1.1,0.3-2.1,0.5-3.2,0.5c-0.9,0-1.6-0.1-2.4-0.3
		c-0.7-0.2-1.4-0.5-1.9-1c-0.6-0.4-1-1-1.3-1.7c-0.3-0.7-0.5-1.5-0.5-2.4c0-1,0.2-1.8,0.5-2.5c0.4-0.7,0.8-1.2,1.4-1.6
		c0.6-0.4,1.2-0.7,1.9-0.9c0.7-0.2,1.5-0.3,2.2-0.5c0.7-0.1,1.5-0.2,2.2-0.3c0.7-0.1,1.3-0.2,1.9-0.3c0.6-0.1,1-0.3,1.3-0.6
		c0.3-0.3,0.5-0.6,0.4-1.2c0-0.5-0.1-0.9-0.3-1.3c-0.2-0.3-0.4-0.6-0.7-0.7c-0.3-0.2-0.6-0.3-1-0.3c-0.4-0.1-0.8-0.1-1.2-0.1
		c-1,0-1.7,0.2-2.3,0.6c-0.6,0.4-0.9,1.1-1,2.1h-4.9C48.2,23.3,48.5,22.3,49,21.6z M58.7,28.5c-0.3,0.1-0.6,0.2-1,0.3
		c-0.4,0.1-0.7,0.1-1.1,0.2c-0.4,0-0.8,0.1-1.2,0.2c-0.4,0.1-0.7,0.2-1.1,0.3c-0.4,0.1-0.7,0.3-0.9,0.5c-0.3,0.2-0.5,0.4-0.6,0.7
		c-0.2,0.3-0.2,0.7-0.2,1.1c0,0.4,0.1,0.8,0.2,1.1c0.2,0.3,0.4,0.5,0.7,0.7c0.3,0.2,0.6,0.3,1,0.4c0.4,0.1,0.7,0.1,1.1,0.1
		c1,0,1.7-0.2,2.2-0.5c0.5-0.3,0.9-0.7,1.2-1.2c0.3-0.4,0.4-0.9,0.5-1.4c0.1-0.5,0.1-0.8,0.1-1.1v-1.8C59.2,28.2,59,28.4,58.7,28.5z
		"/>
	<path class="st3" d="M72.8,19v2.5h0.1c0.6-1,1.4-1.8,2.4-2.3c1-0.5,2-0.7,3-0.7c1.3,0,2.4,0.2,3.2,0.5c0.8,0.4,1.5,0.8,2,1.5
		s0.8,1.4,1,2.3c0.2,0.9,0.3,1.9,0.3,3v11h-4.9V26.7c0-1.5-0.2-2.6-0.7-3.3c-0.5-0.7-1.3-1.1-2.4-1.1c-1.3,0-2.3,0.4-2.9,1.2
		c-0.6,0.8-0.9,2.1-0.9,3.9v9.3h-4.9V19H72.8z"/>
	<path class="st3" d="M93.6,19v17.8h-4.9V19H93.6z"/>
	<path class="st3" d="M107.2,19v3.3h-3.6v8.8c0,0.8,0.1,1.4,0.4,1.7s0.8,0.4,1.7,0.4c0.3,0,0.5,0,0.8,0c0.3,0,0.5-0.1,0.7-0.1v3.8
		c-0.4,0.1-0.9,0.1-1.4,0.1c-0.5,0-1,0-1.5,0c-0.8,0-1.5-0.1-2.2-0.2c-0.7-0.1-1.3-0.3-1.8-0.6c-0.5-0.3-0.9-0.7-1.2-1.3
		c-0.3-0.6-0.4-1.3-0.4-2.2V22.2h-3V19h3v-5.3h4.9V19H107.2z"/>
	<path class="st3" d="M110.2,21.6c0.5-0.8,1.1-1.4,1.9-1.8c0.8-0.5,1.7-0.8,2.6-1c1-0.2,2-0.3,2.9-0.3c0.9,0,1.8,0.1,2.7,0.2
		c0.9,0.1,1.8,0.4,2.5,0.7c0.8,0.4,1.4,0.9,1.9,1.5c0.5,0.7,0.7,1.5,0.7,2.6v9.3c0,0.8,0,1.6,0.1,2.3c0.1,0.7,0.3,1.3,0.5,1.7h-5
		c-0.1-0.3-0.2-0.6-0.2-0.8c-0.1-0.3-0.1-0.6-0.1-0.9c-0.8,0.8-1.7,1.4-2.8,1.7c-1.1,0.3-2.1,0.5-3.2,0.5c-0.9,0-1.6-0.1-2.4-0.3
		c-0.7-0.2-1.4-0.5-1.9-1c-0.6-0.4-1-1-1.3-1.7c-0.3-0.7-0.5-1.5-0.5-2.4c0-1,0.2-1.8,0.5-2.5c0.4-0.7,0.8-1.2,1.4-1.6
		c0.6-0.4,1.2-0.7,1.9-0.9c0.7-0.2,1.5-0.3,2.2-0.5c0.7-0.1,1.5-0.2,2.2-0.3c0.7-0.1,1.3-0.2,1.9-0.3c0.6-0.1,1-0.3,1.3-0.6
		c0.3-0.3,0.5-0.6,0.4-1.2c0-0.5-0.1-0.9-0.3-1.3c-0.2-0.3-0.4-0.6-0.7-0.7c-0.3-0.2-0.6-0.3-1-0.3c-0.4-0.1-0.8-0.1-1.2-0.1
		c-1,0-1.7,0.2-2.3,0.6c-0.6,0.4-0.9,1.1-1,2.1h-4.9C109.4,23.3,109.7,22.3,110.2,21.6z M119.9,28.5c-0.3,0.1-0.6,0.2-1,0.3
		c-0.4,0.1-0.7,0.1-1.1,0.2c-0.4,0-0.8,0.1-1.2,0.2c-0.4,0.1-0.7,0.2-1.1,0.3c-0.4,0.1-0.7,0.3-0.9,0.5c-0.3,0.2-0.5,0.4-0.6,0.7
		c-0.2,0.3-0.2,0.7-0.2,1.1c0,0.4,0.1,0.8,0.2,1.1c0.2,0.3,0.4,0.5,0.7,0.7c0.3,0.2,0.6,0.3,1,0.4c0.4,0.1,0.7,0.1,1.1,0.1
		c1,0,1.7-0.2,2.2-0.5c0.5-0.3,0.9-0.7,1.2-1.2c0.3-0.4,0.4-0.9,0.5-1.4c0.1-0.5,0.1-0.8,0.1-1.1v-1.8
		C120.5,28.2,120.2,28.4,119.9,28.5z"/>
	<path class="st3" d="M134.6,32.5c0.7,0.7,1.8,1.1,3.2,1.1c1,0,1.8-0.2,2.5-0.7c0.7-0.5,1.1-1,1.3-1.6h4.3c-0.7,2.1-1.7,3.7-3.2,4.6
		c-1.4,0.9-3.1,1.4-5.2,1.4c-1.4,0-2.7-0.2-3.8-0.7c-1.1-0.4-2.1-1.1-2.9-1.9c-0.8-0.8-1.4-1.8-1.8-3c-0.4-1.1-0.6-2.4-0.6-3.8
		c0-1.3,0.2-2.6,0.7-3.7c0.4-1.1,1.1-2.1,1.9-3c0.8-0.8,1.8-1.5,2.9-2c1.1-0.5,2.3-0.7,3.7-0.7c1.5,0,2.8,0.3,4,0.9
		c1.1,0.6,2.1,1.4,2.8,2.4c0.7,1,1.2,2.1,1.6,3.4c0.3,1.3,0.4,2.6,0.3,4h-12.9C133.4,30.6,133.9,31.8,134.6,32.5z M140.1,23.1
		c-0.6-0.6-1.5-1-2.7-1c-0.8,0-1.4,0.1-1.9,0.4s-0.9,0.6-1.2,1c-0.3,0.4-0.5,0.8-0.7,1.2c-0.1,0.4-0.2,0.8-0.2,1.2h8
		C141.1,24.7,140.7,23.8,140.1,23.1z"/>
	<path class="st3" d="M153.8,19v3.3h0.1c0.2-0.6,0.5-1.1,0.9-1.5c0.4-0.5,0.8-0.9,1.3-1.2c0.5-0.3,1-0.6,1.6-0.8
		c0.6-0.2,1.2-0.3,1.8-0.3c0.3,0,0.7,0.1,1.1,0.2v4.5c-0.2,0-0.5-0.1-0.8-0.1c-0.3,0-0.6-0.1-0.9-0.1c-0.9,0-1.7,0.1-2.3,0.4
		c-0.6,0.3-1.1,0.7-1.5,1.2c-0.4,0.5-0.6,1.1-0.8,1.8c-0.2,0.7-0.2,1.4-0.2,2.2v8h-4.9V19H153.8z"/>
	<path class="st3" d="M163,34.2v2.6h-2.6v-2.6H163z"/>
	<path class="st4" d="M166.2,28.3c0.2-0.8,0.6-1.4,1.1-2c0.5-0.6,1.1-1,1.8-1.3c0.7-0.3,1.6-0.5,2.5-0.5c1,0,1.8,0.2,2.5,0.5
		c0.7,0.3,1.3,0.8,1.8,1.3c0.5,0.6,0.9,1.2,1.1,2c0.2,0.8,0.4,1.6,0.4,2.5s-0.1,1.7-0.4,2.5c-0.2,0.8-0.6,1.4-1.1,2
		c-0.5,0.6-1.1,1-1.8,1.3c-0.7,0.3-1.6,0.5-2.5,0.5c-0.9,0-1.8-0.2-2.5-0.5c-0.7-0.3-1.3-0.8-1.8-1.3c-0.5-0.6-0.9-1.2-1.1-2
		c-0.2-0.8-0.4-1.6-0.4-2.5S165.9,29,166.2,28.3z M168.2,32.7c0.2,0.6,0.5,1,0.8,1.4c0.3,0.4,0.7,0.7,1.2,0.9
		c0.5,0.2,0.9,0.3,1.5,0.3s1-0.1,1.5-0.3c0.5-0.2,0.9-0.5,1.2-0.9c0.3-0.4,0.6-0.9,0.8-1.4c0.2-0.6,0.3-1.2,0.3-1.9
		s-0.1-1.4-0.3-1.9c-0.2-0.6-0.5-1-0.8-1.4c-0.3-0.4-0.7-0.7-1.2-0.9c-0.5-0.2-0.9-0.3-1.5-0.3s-1,0.1-1.5,0.3
		c-0.5,0.2-0.9,0.5-1.2,0.9c-0.3,0.4-0.6,0.9-0.8,1.4c-0.2,0.6-0.3,1.2-0.3,1.9S168,32.1,168.2,32.7z"/>
	<path class="st4" d="M181.6,24.7v2.5h0c0.5-1,1.1-1.7,1.8-2.2c0.7-0.5,1.6-0.7,2.7-0.7v2.1c-0.8,0-1.5,0.1-2,0.3
		c-0.6,0.2-1,0.5-1.4,1c-0.3,0.4-0.6,0.9-0.7,1.5c-0.2,0.6-0.2,1.3-0.2,2.1v5.4h-2V24.7H181.6z"/>
	<path class="st4" d="M196,40.2c-0.9,1-2.3,1.5-4.2,1.5c-0.6,0-1.1-0.1-1.7-0.2c-0.6-0.1-1.1-0.3-1.6-0.6c-0.5-0.3-0.9-0.6-1.2-1.1
		c-0.3-0.5-0.5-1-0.5-1.7h2c0,0.4,0.1,0.7,0.3,0.9c0.2,0.2,0.5,0.5,0.8,0.6c0.3,0.2,0.6,0.3,1,0.3c0.4,0.1,0.7,0.1,1,0.1
		c0.7,0,1.2-0.1,1.7-0.3c0.5-0.2,0.8-0.5,1.1-0.9c0.3-0.4,0.5-0.9,0.6-1.4s0.2-1.2,0.2-1.8v-0.8h0c-0.3,0.7-0.9,1.3-1.6,1.6
		c-0.7,0.3-1.4,0.5-2.2,0.5c-0.9,0-1.7-0.2-2.4-0.5c-0.7-0.3-1.2-0.8-1.7-1.3c-0.5-0.6-0.8-1.2-1-1.9c-0.2-0.7-0.3-1.5-0.3-2.3
		c0-0.7,0.1-1.5,0.3-2.2c0.2-0.8,0.5-1.4,0.9-2.1c0.4-0.6,1-1.1,1.7-1.5c0.7-0.4,1.6-0.6,2.6-0.6c0.8,0,1.5,0.2,2.1,0.5
		c0.6,0.3,1.1,0.8,1.5,1.5h0v-1.7h1.9v11C197.4,37.7,196.9,39.2,196,40.2z M193.5,34.8c0.5-0.3,0.8-0.6,1.1-1.1
		c0.3-0.4,0.5-0.9,0.6-1.5c0.1-0.6,0.2-1.1,0.2-1.7c0-0.5-0.1-1.1-0.2-1.6c-0.1-0.5-0.3-1-0.6-1.4c-0.3-0.4-0.6-0.7-1.1-1
		c-0.4-0.2-1-0.4-1.6-0.4c-0.6,0-1.2,0.1-1.6,0.4c-0.5,0.2-0.8,0.6-1.1,1c-0.3,0.4-0.5,0.9-0.6,1.4c-0.1,0.5-0.2,1.1-0.2,1.7
		c0,0.5,0.1,1.1,0.2,1.6c0.1,0.5,0.3,1,0.6,1.5c0.3,0.4,0.6,0.8,1.1,1.1s1,0.4,1.6,0.4S193,35,193.5,34.8z"/>
	<path class="st3" d="M92.8,11.5c-1-1.7-1.5-3.1-1.5-3.1s-0.6,1.7-1.8,3.3c-1.2,1.8-1.6,5.2,1.9,5.2c1.7,0,2.5-1.1,2.5-2.5
		C93.9,13.2,93.4,12.4,92.8,11.5z M89.9,15.4c-1-1,0.4-3.1,0.4-3.1C90,12.8,90.8,16.4,89.9,15.4z"/>
	<polygon class="st0" points="16.6,11.1 36.1,11.1 22.3,21.4 	"/>
	<path class="st2" d="M7.4,27.8C8.8,32,12.7,35,17.4,35c4.6,0,8.6-3,9.9-7.2H7.4z"/>
	<g>
		<path class="st3" d="M35.4,38.6c-1.4,0-2.8-0.2-4.2-0.5c-1.4-0.4-2.6-0.9-3.7-1.7c-1.1-0.8-2-1.8-2.6-3.1c-0.6-1.2-1-2.7-0.9-4.4
			l0-1h7.2v1c0,0.7,0.1,1.2,0.3,1.6c0.2,0.4,0.5,0.8,0.9,1c0.4,0.3,0.9,0.5,1.4,0.6c0.6,0.1,1.2,0.2,1.8,0.2c0.4,0,0.9,0,1.4-0.1
			c0.5-0.1,0.9-0.2,1.3-0.4c0.3-0.2,0.6-0.4,0.9-0.7c0.2-0.2,0.3-0.5,0.3-0.9c0-0.5-0.2-0.8-0.3-0.9c-0.3-0.3-0.8-0.6-1.3-0.8
			c-0.6-0.3-1.4-0.5-2.2-0.7c-0.9-0.2-1.8-0.4-2.7-0.7c-0.9-0.2-1.9-0.5-2.8-0.9c-1-0.4-1.8-0.8-2.6-1.4c-0.8-0.6-1.5-1.4-1.9-2.3
			c-0.5-0.9-0.8-2.1-0.8-3.4c0-1.4,0.3-2.7,0.9-3.8c0.6-1.1,1.4-1.9,2.4-2.6c1-0.7,2.1-1.2,3.3-1.5c1.2-0.3,2.4-0.5,3.6-0.5
			c1.4,0,2.7,0.2,3.9,0.5c1.3,0.3,2.5,0.8,3.5,1.5c1,0.7,1.9,1.7,2.5,2.8c0.6,1.1,0.9,2.5,0.9,4.1v1h-7.2l-0.1-0.9
			c0-0.6-0.2-1.1-0.3-1.4c-0.2-0.3-0.4-0.6-0.7-0.8c-0.3-0.2-0.7-0.4-1.2-0.5c-0.5-0.1-1-0.2-1.6-0.2c-0.4,0-0.7,0-1.1,0.1
			c-0.3,0.1-0.6,0.2-0.9,0.3c-0.2,0.2-0.4,0.3-0.6,0.6c-0.1,0.2-0.2,0.4-0.2,0.8c0,0.4,0.1,0.6,0.1,0.6c0,0,0.1,0.2,0.7,0.4
			c0.5,0.2,1.2,0.5,2.1,0.7c1,0.3,2.2,0.6,3.7,1c0.4,0.1,1.1,0.3,1.9,0.5c0.9,0.3,1.8,0.7,2.7,1.3c0.9,0.6,1.7,1.4,2.4,2.4
			c0.7,1,1,2.4,1,3.9c0,1.3-0.3,2.5-0.7,3.5c-0.5,1.1-1.2,2.1-2.2,2.9c-1,0.8-2.2,1.4-3.5,1.8C38.8,38.4,37.2,38.6,35.4,38.6z"/>
		<path class="st2" d="M35,11.9c1.3,0,2.5,0.1,3.7,0.4c1.2,0.3,2.2,0.8,3.2,1.4c0.9,0.6,1.6,1.5,2.2,2.5c0.5,1,0.8,2.2,0.8,3.6h-5.2
			c0-0.7-0.2-1.3-0.5-1.8c-0.3-0.5-0.6-0.9-1.1-1.1c-0.4-0.3-0.9-0.5-1.5-0.6c-0.6-0.1-1.2-0.2-1.8-0.2c-0.4,0-0.9,0-1.3,0.1
			c-0.4,0.1-0.8,0.3-1.2,0.5c-0.4,0.2-0.6,0.5-0.9,0.9c-0.2,0.3-0.3,0.8-0.3,1.3c0,0.5,0.1,0.9,0.3,1.2c0.2,0.3,0.5,0.6,1.1,0.8
			c0.5,0.3,1.3,0.5,2.2,0.8c1,0.3,2.2,0.6,3.7,1c0.5,0.1,1.1,0.3,1.9,0.5c0.8,0.2,1.6,0.6,2.4,1.2c0.8,0.5,1.5,1.2,2.1,2.1
			c0.6,0.9,0.9,2,0.9,3.4c0,1.1-0.2,2.2-0.7,3.1c-0.4,1-1.1,1.8-1.9,2.5c-0.9,0.7-1.9,1.2-3.2,1.6c-1.3,0.4-2.8,0.6-4.4,0.6
			c-1.4,0-2.7-0.2-3.9-0.5c-1.3-0.3-2.4-0.9-3.4-1.6c-1-0.7-1.8-1.6-2.3-2.7c-0.6-1.1-0.9-2.4-0.8-3.9h5.2c0,0.8,0.1,1.5,0.4,2.1
			c0.3,0.6,0.7,1,1.2,1.4c0.5,0.4,1.1,0.6,1.7,0.8c0.7,0.2,1.4,0.3,2.1,0.3c0.5,0,1,0,1.6-0.1c0.6-0.1,1.1-0.2,1.6-0.5
			c0.5-0.2,0.9-0.5,1.2-0.9c0.3-0.4,0.5-0.9,0.5-1.5c0-0.7-0.2-1.2-0.6-1.6c-0.4-0.4-1-0.8-1.7-1c-0.7-0.3-1.5-0.5-2.3-0.7
			c-0.9-0.2-1.8-0.4-2.7-0.7c-0.9-0.2-1.8-0.5-2.7-0.8c-0.9-0.3-1.7-0.8-2.3-1.3c-0.7-0.5-1.2-1.2-1.7-2c-0.4-0.8-0.6-1.8-0.6-2.9
			c0-1.3,0.3-2.4,0.8-3.3c0.5-0.9,1.2-1.7,2.1-2.3c0.9-0.6,1.9-1.1,3-1.4C32.8,12,33.9,11.9,35,11.9 M35,9.9c-1.3,0-2.6,0.2-3.8,0.5
			c-1.3,0.4-2.5,0.9-3.6,1.7c-1.1,0.8-2,1.8-2.7,3c-0.7,1.2-1.1,2.7-1.1,4.3c0,1.5,0.3,2.7,0.9,3.8c0.6,1,1.3,1.9,2.2,2.6
			c0.6,0.4,1.2,0.8,1.8,1.1H25h-2l0,2c0,1.8,0.3,3.5,1.1,4.9c0.7,1.4,1.7,2.5,2.9,3.4c1.2,0.9,2.5,1.5,4,1.9
			c1.4,0.4,2.9,0.6,4.5,0.6c1.9,0,3.6-0.2,5-0.7c1.5-0.5,2.8-1.1,3.9-2c1.1-0.9,1.9-2,2.5-3.2c0.6-1.2,0.8-2.6,0.8-4
			c0-1.8-0.4-3.3-1.2-4.5c-0.7-1.1-1.6-2-2.7-2.7c-0.4-0.3-0.9-0.6-1.4-0.8h2.4h2v-2c0-1.8-0.4-3.3-1-4.6c-0.7-1.3-1.6-2.3-2.8-3.2
			c-1.1-0.8-2.4-1.4-3.8-1.7C37.8,10,36.4,9.9,35,9.9L35,9.9z M33,19C33,18.9,33,18.9,33,19c0-0.2,0-0.3,0-0.3
			c0.1-0.1,0.2-0.2,0.3-0.3c0.1-0.1,0.3-0.2,0.5-0.2c0.3-0.1,0.6-0.1,0.9-0.1c0.5,0,1,0,1.4,0.1c0.3,0.1,0.6,0.2,0.8,0.3
			c0.1,0.1,0.3,0.2,0.4,0.4c0.1,0.1,0.2,0.4,0.2,1l0,0.4c-1-0.3-1.8-0.5-2.5-0.6c-1-0.3-1.6-0.5-1.9-0.6C33.1,19,33.1,19,33,19
			L33,19z M35.6,31.4c-0.5,0-1.1-0.1-1.6-0.2c-0.4-0.1-0.8-0.3-1.1-0.5c-0.2-0.2-0.4-0.4-0.6-0.7c-0.1-0.3-0.2-0.7-0.2-1.2v-0.8
			c0.1,0,0.3,0.1,0.4,0.1c0.9,0.3,1.8,0.5,2.7,0.7c0.8,0.2,1.5,0.4,2.1,0.6c0.4,0.2,0.8,0.4,1,0.6c0,0,0,0.1,0,0.2
			c0,0.2,0,0.3,0,0.3c-0.1,0.2-0.3,0.3-0.5,0.4c-0.3,0.1-0.6,0.2-1,0.3C36.4,31.4,36,31.4,35.6,31.4L35.6,31.4z"/>
	</g>
</g>
</svg>
