<?xml version="1.0" encoding="utf-8"?>
<!-- Generator: Adobe Illustrator 14.0.0, SVG Export Plug-In . SVG Version: 6.00 Build 43363)  -->
<!DOCTYPE svg PUBLIC "-//W3C//DTD SVG 1.1//EN" "http://www.w3.org/Graphics/SVG/1.1/DTD/svg11.dtd">
<svg version="1.1" id="Ebene_1" xmlns="http://www.w3.org/2000/svg" xmlns:xlink="http://www.w3.org/1999/xlink" x="0px" y="0px"
	 width="224.88px" height="114.84px" viewBox="0 0 224.88 114.84" enable-background="new 0 0 224.88 114.84" xml:space="preserve">
<path fill-rule="evenodd" clip-rule="evenodd" fill="#E30C19" d="M6.6,0c0,37.961,0,75.919,0,113.88c-2.2,0-4.4,0-6.6,0
	C0,75.919,0,37.961,0,0C2.2,0,4.4,0,6.6,0z"/>
<path fill-rule="evenodd" clip-rule="evenodd" fill="#FFFFFF" d="M6.6,0c5.32,0,10.64,0,15.96,0c0,37.919,0,75.842,0,113.76
	c3.12,0.28,6.76,0.04,10.08,0.12C33,76.199,32.521,37.682,32.88,0c4.2,0,8.4,0,12.6,0c0,37.919,0,75.842,0,113.76
	c3.96,0.28,8.44,0.04,12.6,0.12C58.36,76.161,58.12,37.918,58.2,0c3.68,0,7.36,0,11.04,0c0.015,37.975-0.208,75.711-0.12,113.76
	c4.96,0.28,10.44,0.04,15.6,0.12c0-37.961,0-75.919,0-113.88c2.36,0,4.72,0,7.08,0c0.115,37.885,0.038,75.964,0.24,113.76
	c5.92,0.28,12.36,0.04,18.48,0.12c0.045-37.955,0.185-75.817,0.12-113.88c1.72,0,3.44,0,5.16,0c0,37.919,0,75.842,0,113.76
	c6.8,0.28,14.12,0.04,21.12,0.12c0-37.961,0-75.919,0-113.88c1.16,0,2.32,0,3.48,0c-0.043,38.004,0.031,75.888,0.12,113.76
	c5.414-0.273,11.627,0.943,16.2-0.24c4.428-1.146,7.2-4.042,8.16-8.52c0.759-0.114,1.238,0.954,1.92,1.56
	c4.458,3.968,11.229,7.539,18.96,8.28c-57.402,0-116.448,0-174.6,0c-2.653,0-6.741,0.32-10.2,0c-0.942-0.087-1.065,0.1-0.96-0.96
	c2.2,0,4.4,0,6.6,0C6.6,75.919,6.6,37.961,6.6,0z"/>
<path fill-rule="evenodd" clip-rule="evenodd" fill="#E30C19" d="M22.56,0C26,0,29.44,0,32.88,0
	C32.521,37.682,33,76.199,32.64,113.88c-3.32-0.08-6.96,0.16-10.08-0.12C22.56,75.842,22.56,37.919,22.56,0z"/>
<path fill-rule="evenodd" clip-rule="evenodd" fill="#E30C19" d="M45.48,0c4.24,0,8.48,0,12.72,0
	c-0.08,37.918,0.16,76.161-0.12,113.88c-4.16-0.08-8.64,0.16-12.6-0.12C45.48,75.842,45.48,37.919,45.48,0z"/>
<path fill-rule="evenodd" clip-rule="evenodd" fill="#E30C19" d="M69.24,0c5.16,0,10.32,0,15.48,0c0,37.961,0,75.919,0,113.88
	c-5.16-0.08-10.64,0.16-15.6-0.12C69.033,75.711,69.255,37.975,69.24,0z"/>
<path fill-rule="evenodd" clip-rule="evenodd" fill="#E30C19" d="M91.8,0c6.28,0,12.56,0,18.84,0
	c0.065,38.063-0.075,75.926-0.12,113.88c-6.12-0.08-12.56,0.16-18.48-0.12C91.838,75.964,91.915,37.885,91.8,0z"/>
<path fill-rule="evenodd" clip-rule="evenodd" fill="#E30C19" d="M115.8,0c7.04,0,14.08,0,21.12,0c0,37.961,0,75.919,0,113.88
	c-7-0.08-14.32,0.16-21.12-0.12C115.8,75.842,115.8,37.919,115.8,0z"/>
<path fill-rule="evenodd" clip-rule="evenodd" fill="#E30C19" d="M140.4,0c5.88,0,11.76,0,17.64,0
	c8.109,0.593,6.84,10.202,6.84,19.44c0,5.906-0.122,11.71,0.36,16.32c1.669-0.469,2.905-1.788,4.2-2.76
	c3.792-2.847,8.512-5.327,14.4-6.12c8.443-1.137,16.134,1.268,21.72,4.92c10.944,7.157,17.792,19.294,19.32,35.521
	c0,2.28,0,4.56,0,6.84c-0.844,11.245-4.757,20.273-10.2,27.12c-5.416,6.813-12.9,12.298-23.76,13.56c-1.72,0-3.44,0-5.16,0
	c-7.731-0.742-14.502-4.312-18.96-8.28c-0.682-0.606-1.161-1.674-1.92-1.56c-0.96,4.478-3.732,7.375-8.16,8.52
	c-4.573,1.183-10.786-0.033-16.2,0.24C140.431,75.888,140.357,38.004,140.4,0z M174.12,49.56c-3.374,2.424-6.182,6.833-7.56,10.68
	c-1.519,4.241-2.416,10.548-1.56,16.08c0.788,5.095,2.683,9.327,5.4,12.84c2.534,3.276,6.575,6.458,12,6.36
	c5.697-0.102,10.003-3.812,12.84-8.28c2.748-4.327,4.594-10.263,4.44-16.68c-0.151-6.333-2.193-12.223-4.92-16.2
	c-2.515-3.668-7.231-8.035-13.92-7.32C177.837,47.361,175.775,48.371,174.12,49.56z"/>
<path fill-rule="evenodd" clip-rule="evenodd" fill="#FFFFFF" d="M158.041,0c22.28,0,44.56,0,66.84,0c0,22.44,0,44.88,0,67.32
	c-1.527-16.226-8.376-28.364-19.32-35.521c-5.586-3.652-13.277-6.057-21.72-4.92c-5.888,0.793-10.608,3.273-14.4,6.12
	c-1.295,0.973-2.531,2.292-4.2,2.76c-0.481-4.61-0.36-10.415-0.36-16.32C164.88,10.202,166.15,0.593,158.041,0z"/>
<path fill-rule="evenodd" clip-rule="evenodd" fill="#FFFFFF" d="M180.84,47.04c6.688-0.715,11.405,3.652,13.92,7.32
	c2.727,3.977,4.769,9.867,4.92,16.2c0.154,6.417-1.692,12.353-4.44,16.68c-2.836,4.467-7.143,8.178-12.84,8.28
	c-5.425,0.098-9.466-3.083-12-6.36c-2.717-3.513-4.612-7.745-5.4-12.84c-0.856-5.532,0.041-11.839,1.56-16.08
	c1.378-3.848,4.186-8.256,7.56-10.68C175.775,48.371,177.837,47.361,180.84,47.04z"/>
<path fill-rule="evenodd" clip-rule="evenodd" fill="#FFFFFF" d="M224.88,74.16c0,13.56,0,27.12,0,40.68c-11.32,0-22.64,0-33.96,0
	c10.86-1.262,18.344-6.747,23.76-13.56C220.123,94.433,224.037,85.405,224.88,74.16z"/>
</svg>
