<svg xmlns="http://www.w3.org/2000/svg" viewBox="0 0 889.61 208.21"><defs><style>.cls-1,.cls-3{fill:#fff;}.cls-2{fill:#265e2a;}.cls-3{stroke:#fff;stroke-miterlimit:10;stroke-width:0.5px;}</style></defs><g id="Ebene_2" data-name="Ebene 2"><g id="Ebene_1-2" data-name="Ebene 1"><g id="Eulen"><path class="cls-1" d="M118,208V46c0-27,22-46,62-46,39,2,54,30,52,60C230,159,124,212,118,208Z"/><g id="Augen_Schnabel" data-name="Augen+Schnabel"><polyline class="cls-2" points="202.23 52.96 174.65 80.54 147.07 52.96"/><circle class="cls-2" cx="199.15" cy="47.46" r="26"/><circle class="cls-2" cx="150.15" cy="47.46" r="26"/><circle class="cls-1" cx="199.15" cy="47.46" r="23.5"/><circle class="cls-1" cx="150.15" cy="47.46" r="23.5"/><circle class="cls-2" cx="197.65" cy="49.96" r="9.5"/><circle class="cls-2" cx="149.65" cy="49.96" r="9.5"/></g></g><g id="Eulen-2" data-name="Eulen"><path class="cls-1" d="M0,208V46C0,19,22,0,62,0c39,2,54,30,52,60C112,159,6,212,0,208Z"/><g id="Augen_Schnabel-2" data-name="Augen+Schnabel"><polyline class="cls-2" points="84.23 52.96 56.65 80.54 29.07 52.96"/><circle class="cls-2" cx="81.15" cy="47.46" r="26"/><circle class="cls-2" cx="32.15" cy="47.46" r="26"/><circle class="cls-1" cx="81.15" cy="47.46" r="23.5"/><circle class="cls-1" cx="32.15" cy="47.46" r="23.5"/><circle class="cls-2" cx="79.65" cy="49.96" r="9.5"/><circle class="cls-2" cx="31.65" cy="49.96" r="9.5"/></g></g><path class="cls-3" d="M272.34,119.62h38.12L316.93,140l-3.68,2.5-1.91-3.86c-4-8-10.08-11.77-16.93-11.77-4.41,0-5.88,1.35-5.88,7.29v14h4.34c5.15,0,6.25-3.43,6.7-12.81h3.82v33.13h-3.82c-.74-10.11-2.14-13-8.1-13h-2.94v21.25c0,5.42,2,7.5,6.33,7.82v6H272.34v-6c4.34-.32,6.33-2.4,6.33-7.82V133.47c0-5.41-2-7.5-6.33-7.81Z"/><path class="cls-3" d="M321.86,154.52c0-4-.59-5.11-5.59-5.52v-6a28.21,28.21,0,0,0,10.89-3.44h3.68v36.57c0,6.77,1.91,8.23,4.63,8.23,3.61,0,7.29-2.71,9.94-6V154.52c0-4-.59-5.11-5.59-5.52v-6a28.21,28.21,0,0,0,10.89-3.44h3.68v38.13c0,4.17.81,6.77,5.66,6.88v6h-14.2v-5.73c-4,4.69-8.54,6.77-13.17,6.77-5.45,0-10.82-3.44-10.82-14.38Zm8.61-34.15a5.5,5.5,0,1,1-5.5,5.5A5.54,5.54,0,0,1,330.47,120.37Zm15.45,0a5.5,5.5,0,1,1-5.5,5.5A5.54,5.54,0,0,1,345.92,120.37Z"/><path class="cls-3" d="M369.17,154.52c0-4-.58-5.11-5.59-5.52v-6c3.53-.32,7.95-1.67,10.89-4.49h3.24v7c2.72-3.86,6.33-7,10.3-7,3.17,0,6,1.57,6,7.3,0,3.33-1.4,6-3.83,6-3.6,0-3.68-4.17-7.06-4.17a5.6,5.6,0,0,0-5,4.17v25.84c0,4.17.81,6.77,5.6,6.88v6H363.58v-6c4.79-.11,5.59-2.71,5.59-6.88Z"/><path class="cls-3" d="M395.3,173.59l4-1.15c3.31,9.79,8.46,12.5,13.76,12.5,4.2,0,7.73-2.71,7.73-7.29,0-3.54-1.25-5.52-6.7-7L408,169c-6.33-1.77-11.34-4.9-11.19-14.06.15-10.42,6.26-16.47,14.65-16.47a16,16,0,0,1,10.45,4.07l.95-3h2.58l1.69,14.27-3.9.94c-2.57-6.88-6.55-10.21-11.33-10.21a6.37,6.37,0,0,0-6.55,6.35c0,2.61,1.1,4.38,4.27,5.32l9.49,2.81c6,1.77,10.16,5,10.16,14.38,0,10.42-6,18.23-16.34,18.23a15.38,15.38,0,0,1-11.41-4.48l-.88,3.44h-3.09Z"/><path class="cls-3" d="M438.79,146.18h-5.6v-6c6.33-.62,9-7.71,10.6-17h4v16.36h9.87v6.66h-9.87v29.18c0,5.73,1.18,8.33,4.35,8.33,1.62,0,4.26-1.25,6.69-3.75l2.65,4.38c-3.6,4.69-8.17,7.29-13,7.29-8.76,0-9.64-8.33-9.64-13.13Z"/><path class="cls-3" d="M470.8,161.4a30.23,30.23,0,0,0-.22,4.16c0,10.11,2.72,19.38,10.52,19.38,5.67,0,9.49-3.75,11.85-10.1l3.6,2.39c-2.79,8.65-7.72,14.28-17.36,14.38-11.63,0-18.48-12.4-18.48-27.19,0-16.78,8.76-25.95,18.4-25.95,9.13,0,16.63,6.88,16.63,22.93Zm15.08-6.05v-1.56c0-4.69-1.91-9.27-6.77-9.27-4.56,0-7.43,4.48-7.87,10.83Z"/><path class="cls-3" d="M505.23,154.52c0-4-.58-5.11-5.59-5.52v-6c3.53-.32,7.95-1.67,10.89-4.49h3.24v6.78c4-4.69,8.54-6.78,13.17-6.78,5.45,0,10.82,3.44,10.82,14.38v24.8c0,4.17.81,6.77,5.6,6.88v6H524.29v-6c3.17-.73,4.49-1.78,4.49-6.36V154c0-6.77-1.91-8.23-4.63-8.23-3.61,0-7.29,2.71-9.94,6v25.84c0,4.17.81,6.77,5.6,6.88v6H499.64v-6c4.78-.11,5.59-2.71,5.59-6.88Z"/><path class="cls-3" d="M558.66,191.19l-8-38.55c-1.4-6.77-5.16-7.08-5.38-7.08h-.14v-6h17.07v5.41c-2.8.73-3.53,1.57-3.53,3.23a36.55,36.55,0,0,0,1,6.36l4.93,24.59h.15l4.41-21.88a29.63,29.63,0,0,0,.59-5c0-4.9-2.65-6.57-4.86-7.3v-5.41h16.93v5.41c-2.87.63-3.53,1.36-3.53,3.44a30.11,30.11,0,0,0,.73,5l5.3,25.74h.15l4.86-23.24a24.74,24.74,0,0,0,.66-5.31c0-3.54-1-4.48-3.9-5.63v-5.41h14.5v6h-.15c-.3,0-4.05,1-5.52,7.4L586,191.19h-7.65l-6-28.54h-.15l-6,28.54Z"/><path class="cls-3" d="M641,186c-2.35,4.38-5.52,5.63-8.75,5.63-3.83,0-6.26-2.29-7.44-6.56-4.71,5.1-8.68,6.56-12.29,6.56-7,0-10.67-6.46-10.67-12.92,0-11.25,7.8-17,22.37-19V153c0-5.84-1.39-8.44-6.47-8.44a5.9,5.9,0,0,0-6.11,5.52c-.44,5.94-1.47,7.5-4.12,7.5-2.94,0-4-3.33-4-5.73,0-7.81,6-13.34,15.24-13.34,10.23,0,14.42,4.8,14.42,15.63v26.15c0,2.92,1,4.07,2.36,4.07,1,0,1.91-.42,3-2Zm-16.78-20.83c-7.65,1-13.39,4.48-13.39,11.67,0,4.06,1.69,6.87,5.52,6.87a11,11,0,0,0,7.87-4.17Z"/><path class="cls-3" d="M641.07,184.53c4.79-.11,5.6-2.71,5.6-6.88v-44c0-4-.59-5.1-5.6-5.52v-6A28.1,28.1,0,0,0,652,118.68h3.68v59c0,4.17.81,6.77,5.6,6.88v6H641.07Z"/><path class="cls-3" d="M690.82,186.71c-3.61,3.65-7.29,4.9-10.52,4.9-11.34,0-16.42-12.81-16.42-26.67,0-13.13,4.86-26.47,16.42-26.47a13.74,13.74,0,0,1,10.08,4.59v-8.54c0-4.69-1-6.15-6.55-6.36v-6c4.78-.32,9.57-1.67,11.85-3.44h3.68v59c0,4.17.81,6.77,5.59,6.88v6H690.82Zm-.44-36.05a9.08,9.08,0,0,0-7.21-4.89c-7.8,0-9.87,9.48-9.87,19.58,0,7.4,1.84,19,8.69,19,3.16,0,7.14-2.09,8.39-4.48Z"/><path class="cls-3" d="M717.82,161.4a31.92,31.92,0,0,0-.22,4.16c0,10.11,2.73,19.38,10.53,19.38,5.66,0,9.49-3.75,11.85-10.1l3.6,2.39c-2.79,8.65-7.73,14.28-17.37,14.38-11.62,0-18.47-12.4-18.47-27.19,0-16.78,8.76-25.95,18.4-25.95,9.13,0,16.63,6.88,16.63,22.93Zm15.09-6.05v-1.56c0-4.69-1.91-9.27-6.77-9.27-4.56,0-7.43,4.48-7.87,10.83Z"/><path class="cls-3" d="M272.34,82.53c4.34-.32,6.33-2.4,6.33-7.82V31.47c0-5.41-2-7.5-6.33-7.81v-6h22.52v6c-4.35.31-6.33,2.4-6.33,7.81V46.16h21V31.47c0-5.41-2-7.5-6.32-7.81v-6h22.51v6c-4.34.31-6.32,2.4-6.32,7.81V74.71c0,5.42,2,7.5,6.32,7.82v6H303.25v-6c4.34-.32,6.32-2.4,6.32-7.82V52.83h-21V74.71c0,5.42,2,7.5,6.33,7.82v6H272.34Z"/><path class="cls-3" d="M340.62,59.4a31.92,31.92,0,0,0-.22,4.16c0,10.11,2.73,19.38,10.53,19.38,5.66,0,9.49-3.75,11.85-10.1l3.6,2.39c-2.79,8.65-7.72,14.28-17.37,14.38-11.62,0-18.47-12.4-18.47-27.19,0-16.78,8.76-25.95,18.4-25.95,9.13,0,16.63,6.88,16.63,22.93Zm15.09-6V51.79c0-4.69-1.91-9.27-6.77-9.27-4.56,0-7.43,4.48-7.87,10.83Z"/><path class="cls-3" d="M370.79,41a28.2,28.2,0,0,0,10.9-3.44h3.68V75.65c0,4.17.81,6.77,5.59,6.88v6H370.79v-6c4.79-.11,5.6-2.71,5.6-6.88V52.52c0-4-.59-5.11-5.6-5.52Zm10.9-22.9a5.5,5.5,0,1,1-5.5,5.5A5.5,5.5,0,0,1,381.69,18.06Z"/><path class="cls-3" d="M395.37,82.53c4.79-.11,5.6-2.71,5.6-6.88V52.52c0-4-.59-5.11-5.6-5.52V41c3.53-.32,7.95-1.67,10.89-4.49h3.24v6.26a14.79,14.79,0,0,1,11.63-6.26c4.86,0,7.73,1.57,9.93,6.88,2.95-3.65,8.32-6.88,12.37-6.88,10.6,0,11.41,9.38,11.41,16.36V75.65c0,4.17.81,6.77,5.59,6.88v6H440.78v-6c4.56-1.36,5.08-2.19,5.08-7.3V50.54c0-4.38-1-6.77-4.71-6.77-2.8,0-5.08,1.67-7.14,3.75l-1.62,1.67V75.65c0,4.17.81,6.77,5.59,6.88v6H418.33v-6c4.57-1.36,5.08-2.19,5.08-7.3V50.54c0-4.38-1-6.77-4.71-6.77-2.8,0-5.08,1.67-7.14,3.75l-1.62,1.67V75.65c0,4.17.81,6.77,5.6,6.88v6H395.37Z"/><path class="cls-3" d="M503.92,84c-2.36,4.38-5.52,5.63-8.76,5.63-3.83,0-6.26-2.29-7.44-6.56-4.71,5.1-8.68,6.56-12.29,6.56-7,0-10.67-6.46-10.67-12.92,0-11.25,7.8-17,22.38-19V51c0-5.84-1.4-8.44-6.48-8.44A5.9,5.9,0,0,0,474.55,48c-.44,5.94-1.47,7.5-4.12,7.5-2.94,0-4-3.33-4-5.73,0-7.81,6-13.34,15.23-13.34,10.23,0,14.42,4.8,14.42,15.63V78.25c0,2.92,1,4.07,2.36,4.07,1,0,1.91-.42,3-2ZM487.14,63.15c-7.66,1-13.4,4.48-13.4,11.67,0,4.06,1.69,6.87,5.52,6.87a11,11,0,0,0,7.88-4.17Z"/><path class="cls-3" d="M511.34,44.18h-5.59v-6c6.33-.62,9-7.71,10.6-17h4V37.52h9.86v6.66h-9.86V73.36c0,5.73,1.18,8.33,4.34,8.33,1.62,0,4.27-1.25,6.7-3.75L534,82.32c-3.61,4.69-8.17,7.29-13,7.29-8.75,0-9.64-8.33-9.64-13.13Z"/><path class="cls-3" d="M540,44.18h-5.6v-6c6.33-.62,9-7.71,10.6-17h4V37.52h9.86v6.66H549V73.36c0,5.73,1.17,8.33,4.34,8.33,1.62,0,4.27-1.25,6.7-3.75l2.64,4.38c-3.6,4.69-8.16,7.29-13,7.29-8.76,0-9.64-8.33-9.64-13.13Z"/><path class="cls-3" d="M563,41a28.15,28.15,0,0,0,10.89-3.44h3.68V75.65c0,4.17.81,6.77,5.59,6.88v6H563v-6c4.78-.11,5.59-2.71,5.59-6.88V52.52c0-4-.59-5.11-5.59-5.52Zm10.89-22.9a5.5,5.5,0,1,1-5.5,5.5A5.5,5.5,0,0,1,573.89,18.06Z"/><path class="cls-3" d="M598.32,59.4a30.23,30.23,0,0,0-.22,4.16c0,10.11,2.72,19.38,10.52,19.38,5.67,0,9.5-3.75,11.85-10.1l3.61,2.39c-2.8,8.65-7.73,14.28-17.37,14.38-11.63,0-18.47-12.4-18.47-27.19,0-16.78,8.76-25.95,18.4-25.95,9.12,0,16.63,6.88,16.63,22.93Zm15.09-6V51.79c0-4.69-1.91-9.27-6.77-9.27-4.56,0-7.43,4.48-7.88,10.83Z"/><path class="cls-3" d="M634.53,52.52c0-4-.59-5.11-5.6-5.52V41c3.53-.32,8-1.67,10.89-4.49h3.24v7c2.73-3.86,6.33-7,10.31-7,3.16,0,6,1.57,6,7.3,0,3.33-1.4,6-3.83,6-3.6,0-3.68-4.17-7.06-4.17a5.6,5.6,0,0,0-5,4.17V75.65c0,4.17.81,6.77,5.6,6.88v6H628.93v-6c4.79-.11,5.6-2.71,5.6-6.88Z"/><path class="cls-3" d="M686.11,81.69c6.92.73,11.48,4.17,11.48,13.55,0,13.54-10.08,17.92-19.72,17.92-7.88,0-18-2.4-18-12.09,0-4.58,2.14-8.23,6-10-3.83-2.5-4.79-5.63-4.79-9.79,0-6.26,3.24-10.94,7.44-12.19a22.12,22.12,0,0,1-5.23-14.38c0-12.92,8.32-18.24,14.65-18.24a15.33,15.33,0,0,1,4.41.53c1.11.2,1.91.52,2.43.52s.81-.52,1.1-1.36c1.4-3.85,4-7.6,8.25-7.6,2.5,0,4.12,1.77,4.12,5.1S697,38.35,695,38.35a8.14,8.14,0,0,1-2.21-.42,7.12,7.12,0,0,0-1.92-.41,3.61,3.61,0,0,0-3.09,2.29c3.61,3,5.89,8.65,5.89,15,0,9.38-5.22,18.34-15.31,18.34a13.62,13.62,0,0,1-6.77-1.56c-1.47.2-2.79,1.77-2.79,4.27s.95,4.27,6.69,4.79ZM674.26,92.84c-1.47-.1-3.24-.73-4-.73-2.57,0-5.15,3.86-5.15,7.4,0,5.42,5.82,7.6,11.85,7.6,7.58,0,13-2.29,13-7.91,0-3.44-1.4-4.9-7.44-5.53Zm-2.35-38c0,9.07,2.87,12.92,6.62,12.92s6.62-3.85,6.62-12.92c0-9.37-2.5-12.92-6.62-12.92S671.91,45.44,671.91,54.81Z"/><path class="cls-3" d="M741.16,84c-2.36,4.38-5.52,5.63-8.76,5.63-3.83,0-6.26-2.29-7.44-6.56-4.71,5.1-8.68,6.56-12.29,6.56-7,0-10.67-6.46-10.67-12.92,0-11.25,7.8-17,22.38-19V51c0-5.84-1.4-8.44-6.48-8.44A5.9,5.9,0,0,0,711.79,48c-.44,5.94-1.47,7.5-4.12,7.5-2.94,0-4-3.33-4-5.73,0-7.81,6-13.34,15.23-13.34,10.23,0,14.42,4.8,14.42,15.63V78.25c0,2.92,1,4.07,2.36,4.07,1,0,1.91-.42,3-2ZM724.38,63.15c-7.66,1-13.4,4.48-13.4,11.67,0,4.06,1.69,6.87,5.52,6.87a11,11,0,0,0,7.88-4.17Z"/><path class="cls-3" d="M749,52.52c0-4-.59-5.11-5.6-5.52V41c3.53-.32,8-1.67,10.89-4.49h3.24v7c2.73-3.86,6.33-7,10.31-7,3.16,0,6,1.57,6,7.3,0,3.33-1.4,6-3.83,6-3.6,0-3.68-4.17-7.06-4.17a5.6,5.6,0,0,0-5,4.17V75.65c0,4.17.81,6.77,5.6,6.88v6H743.43v-6c4.79-.11,5.6-2.71,5.6-6.88Z"/><path class="cls-3" d="M781.25,44.18h-5.59v-6c6.33-.62,9-7.71,10.6-17h4V37.52h9.86v6.66h-9.86V73.36c0,5.73,1.18,8.33,4.35,8.33,1.61,0,4.26-1.25,6.69-3.75l2.65,4.38c-3.6,4.69-8.17,7.29-13,7.29-8.76,0-9.65-8.33-9.65-13.13Z"/><path class="cls-3" d="M815,59.4a30.23,30.23,0,0,0-.22,4.16c0,10.11,2.72,19.38,10.52,19.38,5.67,0,9.5-3.75,11.85-10.1l3.61,2.39c-2.8,8.65-7.73,14.28-17.37,14.38-11.63,0-18.47-12.4-18.47-27.19,0-16.78,8.76-25.95,18.4-25.95,9.12,0,16.63,6.88,16.63,22.93Zm15.09-6V51.79c0-4.69-1.92-9.27-6.77-9.27-4.57,0-7.44,4.48-7.88,10.83Z"/><path class="cls-3" d="M851.23,52.52c0-4-.58-5.11-5.59-5.52V41c3.53-.32,8-1.67,10.89-4.49h3.24v6.78c4-4.69,8.54-6.78,13.17-6.78,5.45,0,10.82,3.44,10.82,14.38v24.8c0,4.17.81,6.77,5.6,6.88v6H870.29v-6c3.17-.73,4.49-1.78,4.49-6.36V52c0-6.77-1.91-8.23-4.63-8.23-3.61,0-7.29,2.71-9.94,6V75.65c0,4.17.81,6.77,5.6,6.88v6H845.64v-6c4.78-.11,5.59-2.71,5.59-6.88Z"/></g></g></svg>