<?xml version="1.0" encoding="utf-8"?>
<!-- Generator: Adobe Illustrator 22.1.0, SVG Export Plug-In . SVG Version: 6.00 Build 0)  -->
<svg version="1.1" id="Ebene_1" xmlns="http://www.w3.org/2000/svg" xmlns:xlink="http://www.w3.org/1999/xlink" x="0px" y="0px"
	 viewBox="0 0 234.7 304.1" style="enable-background:new 0 0 234.7 304.1;" xml:space="preserve">
<style type="text/css">
	.st0{fill:#002F87;}
	.st1{fill:#7F97C3;}
	.st2{fill:#00833E;}
</style>
<g>
	<path class="st0" d="M150.2,0c0.8,0.1,2.5,0.9,3.3,0.9c0.8,0.1,1.9-0.6,2.7-0.5c0.8,0.1,0.7,0.8,1.5,0.8l6.9,0.5
		c0.8,0.1,0.3-0.2,0.5-0.7c1.1,1.9,4.7,1.5,6.3,2.7c3,4.5,9.6,3.4,13.4,7.2c0.3,0,0.5-0.2,0.5-0.7l1.2,0.1c2.4,4,7.7,4.7,10.9,7.3
		c1.8,1.8,3.6,5.4,6.4,6.8l-0.1,1.8c1.2,0.4,2.6,1.2,3.9,2.1c0.2,2.2,2.2,3.4,2.2,4.3c-0.1,1.8,0.2,6.5-0.6,6.5
		c-4.5-0.3-10.2-7-13.8-8.3c-1.8-3-18.2-14.7-25.7-15.2l-12.2-0.8c-0.8-0.1,0.2-0.7-0.6-0.8l-4.2-0.3c-0.8-0.1-1.3,0.7-1.8,1.1
		c-0.6,0.5-1.6-0.3-2.7,0.7l-4.4-0.3c-0.8-0.1-3.1,1.2-4.7,2.4c-5.4,1-9.7,3.1-15.4,4.9c-1.2,3-3.9,3.6-6.4,5.8
		c-3.3-1.2-4.3,4.7-7.3,4c-1.9,2.1-4,5.5-6.3,8.1l-0.9-0.1c-0.8,0-0.5-0.7-0.7-0.8c-0.7,1.4-4.4,0.8-5.3,1.7
		c-0.6,0.1-2.2,6.5-3.1,6.7c-2.3,6.4-5.9,4-7.4,10.9c-0.8,3.8,0,7.7-0.1,8.9c-0.5,0-0.9,2.3-1.1,2c-2.3,0.8-1.5-2-1.7-0.3
		c-0.1,0.9-0.4,1.7,0.5,1.9c-0.4,1.4-2.1,1.2-2.8,1.2c-2.8-0.2-4.3-3.2-7.4-3.4l-4.8-0.3c-0.8-0.1,0.2-0.7-0.6-0.8l-4.2-0.3
		c-6.4-0.4-19.2,6.4-21.3,10c-6.5,1.2-7.2,8.7-11.1,12c-1.8,0.9-2.5,3.4-3.1,5.5c-3.1,1-2.5,6.2-4,9c-1,0.8-2.7,2.2-2.8,3.1
		l-0.5,7.4c-0.1,0.9-1,1.8-1.5,2.5c-0.6,0.8,0.2,3.7-1.2,4.6l-4.3-3.1c-0.7-0.8-0.6-2.2-1.2-3l0.7-9.7c0.2-2.4,7.9-21.2,10-25
		c5.1-8.6,14.3-15.7,22.7-20.2c0.4-0.4,3.9-2.5,4.5-2.5c0.8,0.1,0.1,0.7,1,0.8c0.1,0,4.2-0.9,6.1-3.2l11.2,0.8c1,0.8,2.2,2.3,3,2.3
		c0.8,0.1,2.2-0.6,3-0.8c2.8-6.2,4.3-10.6,6.8-16.9c3.7-5,7.8-10.5,12-15.7c4.6-2.3,9.3-6.5,12.9-9.9c3.4-2.5,8.5-6.1,13-7.2
		c2.8-0.7,6.4-3.1,9.5-4.9l4.4,0.3c0.8,0.1,2.5-2.2,4-2.5c2.4-0.4,5.2-1.2,6.6-1.1c0.8,0.1,0.8,0.8,1.6,0.8
		C147.3,1.2,149.2-0.1,150.2,0L150.2,0z"/>
	<g>
		<path class="st0" d="M11.5,304.1c-4.1,0-7.5-0.4-10.5-1.2l1-9.7c2.9,1.2,6.2,2,9.8,2c3.3,0,6-1.4,6-4.6c0-7.5-17.7-3.7-17.7-18.5
			c0-8.3,6.4-13.8,17.5-13.8c2.3,0,5.5,0.3,8.1,0.9l-0.9,8.9c-2.4-0.9-4.9-1.3-7.6-1.3c-4.2,0-6.1,1.7-6.1,4.2c0,6.9,18,4.3,18,18.3
			C29,297.8,21.9,304.1,11.5,304.1z"/>
		<path class="st0" d="M61,303.5c-2.7,0-7.7-0.1-14.1-0.1v-44.1c4.1-0.2,10.4-0.3,15.9-0.3c9.5,0,15.2,3.7,15.2,11.1
			c0,4.1-2.2,7.9-6,9.6v0.2c4.5,1.2,7.3,5.4,7.3,9.8C79.2,296.6,74,303.5,61,303.5z M61.1,267c-1.6,0-2.7,0.1-3.9,0.1v9.7
			c0.9,0.1,1.8,0.1,3,0.1c5,0,7-2,7-5.4C67.2,268.7,65.3,267,61.1,267z M60.5,284.5c-0.5,0-2.6,0-3.4,0.1V295c0.9,0.1,2.5,0.2,4,0.2
			c4.6,0,7.1-2.1,7.1-5.5C68.3,286.2,65.3,284.5,60.5,284.5z"/>
		<path class="st0" d="M123.4,303.3l-2.8-8.2h-15.2l-2.7,8.2H92.5l14.9-44.2H119l15.5,44.2H123.4z M114.7,277
			c-0.7-2.2-1.2-4.2-1.7-6.2h-0.1c-0.5,2-0.9,4-1.6,6.2l-3.4,10.1h10.3L114.7,277z"/>
		<path class="st0" d="M149.3,303.3v-8l14.2-23.8c0.7-1.2,1.5-2.3,2.4-3.4c-1.2,0.1-2.7,0.1-6.9,0.1h-9.2V259h28.6v8.3l-15,24.1
			c-0.5,0.9-1,1.6-1.7,2.5c0.9-0.1,3.3-0.1,8.6-0.1h8.4v9.4h-29.4V303.3z"/>
		<path class="st0" d="M219.8,303.3h-11.9l-15-44.2h11l7.8,24.2c0.8,2.4,1.7,5.6,2.3,8.3h0.1c0.7-2.8,1.6-6,2.5-8.8l7.7-23.6h10.4
			L219.8,303.3z"/>
	</g>
	<g>
		<circle class="st1" cx="117.4" cy="145.1" r="15.2"/>
		<g>
			<circle class="st1" cx="117.4" cy="100.2" r="15.2"/>
			<circle class="st1" cx="82.5" cy="116.1" r="15.2"/>
			<circle class="st1" cx="71.4" cy="152.7" r="15.2"/>
			<circle class="st1" cx="163.4" cy="152.8" r="15.2"/>
			<circle class="st1" cx="152.7" cy="116.1" r="15.2"/>
		</g>
	</g>
	<g>
		<path class="st2" d="M88.5,222.9c-9.7-0.5-18-7.2-20.9-16.4c-1.5-4.7-1.3-9.1-0.2-13.1c-11.3-1.6-20-11.3-20-23
			c0-1.1,0.1-2.2,0.2-3.2H0v69.6h103.1l2.7-18.8c0.1-0.6-0.6-1-1.1-0.6C100.4,221.1,94.7,223.2,88.5,222.9z"/>
		<path class="st2" d="M187.1,167.2c0.1,1,0.2,2.1,0.2,3.2c0,11.7-8.7,21.4-20,23c1.1,4,1.3,8.4-0.2,13.1
			c-2.9,9.2-11.3,15.9-20.9,16.4c-6.2,0.3-11.9-1.8-16.2-5.4c-0.5-0.4-1.2,0-1.1,0.6l2.7,18.8h103.1v-69.6L187.1,167.2L187.1,167.2z
			"/>
	</g>
</g>
</svg>
