<?xml version="1.0" encoding="utf-8"?>
<!DOCTYPE svg PUBLIC "-//W3C//DTD SVG 1.1//EN" "http://www.w3.org/Graphics/SVG/1.1/DTD/svg11.dtd">
<svg version="1.1" id="Ebene_1" xmlns="http://www.w3.org/2000/svg" xmlns:xlink="http://www.w3.org/1999/xlink" x="0px" y="0px"
	 width="200px" height="34.641px" viewBox="0 0 200 34.641" enable-background="new 0 0 200 34.641" xml:space="preserve">
<g>
	<path fill="#FFFFFF" d="M121.504,9.494c0.377,0,0.705,0.142,0.989,0.423c0.282,0.281,0.421,0.612,0.421,0.986
		c0,0.377-0.14,0.755-0.421,1.036c-0.284,0.281-0.565,0.424-0.989,0.424c-0.375,0-0.705-0.143-0.987-0.424
		c-0.281-0.281-0.375-0.612-0.375-1.036c0-0.374,0.14-0.705,0.375-0.986C120.799,9.636,121.13,9.494,121.504,9.494 M123.103,10.903
		c0-0.47-0.14-0.844-0.47-1.175c-0.328-0.328-0.659-0.47-1.128-0.47c-0.421,0-0.798,0.143-1.126,0.47
		c-0.33,0.331-0.47,0.705-0.47,1.175c0,0.47,0.14,0.848,0.47,1.175c0.328,0.331,0.656,0.47,1.126,0.47c0.423,0,0.8-0.14,1.128-0.47
		C122.915,11.751,123.103,11.374,123.103,10.903 M121.928,10.576c0,0.143-0.046,0.235-0.188,0.281
		c-0.046,0.046-0.14,0.046-0.282,0.046h-0.281v-0.655h0.281c0.188,0,0.282,0.046,0.377,0.046
		C121.881,10.341,121.928,10.434,121.928,10.576 M120.895,10.013v1.784h0.282v-0.705h0.235c0.188,0,0.282,0,0.328,0.047
		c0.096,0.049,0.188,0.188,0.188,0.423v0.189h0.282v-0.377c0-0.093-0.047-0.186-0.093-0.282c-0.046-0.092-0.142-0.139-0.281-0.188
		c0.093,0,0.188-0.046,0.235-0.092c0.093-0.093,0.188-0.189,0.188-0.377c0-0.235-0.096-0.375-0.284-0.47
		c-0.093-0.046-0.281-0.046-0.47-0.046h-0.61V10.013z M0.47,9.447h14.806v3.102l-8.271,9.685h8.271v3.195H0v-3.195l8.179-9.685H0.47
		V9.447z M107.31,9.447l7.332,9.59v-9.59h4.607v16.028h-4.607l-7.425-9.683v9.683h-4.607V9.447H107.31z M94.056,9.401h5.264v16.027
		h-5.264V9.401z M81.366,9.447h5.263v12.787h5.687v3.195h-10.95V9.447z M18.332,9.447h12.221v3.198h-7.001v3.244h6.581v3.148h-6.581
		v3.197h7.471v3.195H18.332V9.447z M43.809,9.917c-1.317-0.423-4.23-0.423-4.23-0.423h-5.64v15.935h5.359v-3.76h1.41
		c0.798,0,2.254-0.188,3.241-0.563c2.585-0.986,3.949-3.244,3.949-5.594C47.851,13.068,46.676,10.903,43.809,9.917 M42.164,17.533
		c-0.612,0.656-2.022,0.656-2.022,0.656h-0.844v-5.499h0.844c0,0,1.129-0.046,1.646,0.328c0.801,0.566,0.986,1.364,0.986,2.258
		C42.773,16.17,42.727,16.921,42.164,17.533 M65.854,9.447h12.221v3.198h-7.004v3.244h6.581v3.148h-6.581v3.197h7.425v3.195H65.854
		V9.447z M59.744,9.917c-1.317-0.423-4.23-0.423-4.23-0.423h-5.641v15.935h5.356v-3.76h1.41c0.801,0,2.257-0.188,3.244-0.563
		c2.585-0.986,3.949-3.244,3.949-5.594C63.786,13.068,62.61,10.903,59.744,9.917 M58.049,17.533c-0.609,0.656-2.02,0.656-2.02,0.656
		h-0.847v-5.499h0.847c0,0,1.129-0.046,1.645,0.328c0.798,0.566,0.987,1.364,0.987,2.258C58.708,16.17,58.662,16.921,58.049,17.533"
		/>
	<path fill="#FFCC00" d="M146.465,0v6.723c5.78,0.093,10.246,4.558,10.246,10.387c0,5.829-4.419,10.294-10.246,10.387v7.144H200V0
		H146.465"/>
	<path d="M167.474,21.198h-2.442l-1.787-3.525h-0.94v2.162h0.986v1.364h-4.184v-1.364h1.082v-5.31h-1.082v-1.363h4.984
		c1.55,0,2.396,1.033,2.396,2.257c0,0.94-0.47,1.549-1.363,1.973l1.317,2.397h1.032V21.198 M163.198,16.405
		c0.94,0,1.222-0.516,1.222-0.94c0-0.331-0.188-0.894-0.986-0.894h-1.082v1.833H163.198z M163.198,16.405"/>
	<path d="M167.474,21.198h-2.442l-1.787-3.525h-0.94v2.162h0.986v1.364h-4.184v-1.364h1.082v-5.31h-1.082v-1.363h4.984
		c1.55,0,2.396,1.033,2.396,2.257c0,0.94-0.47,1.549-1.363,1.973l1.317,2.397h1.032V21.198z M163.198,16.405
		c0.94,0,1.222-0.516,1.222-0.94c0-0.331-0.188-0.894-0.986-0.894h-1.082v1.833H163.198z M163.198,16.405"/>
	<path d="M173.774,19.93c-0.565,0.894-1.506,1.363-2.728,1.363c-1.927,0-3.148-1.082-3.148-2.82c0-1.741,1.269-3.008,3.009-3.008
		c1.691,0,3.006,1.268,2.867,3.29h-4.091c0,0.659,0.377,1.41,1.363,1.41c0.47,0,0.801-0.142,1.317-0.659L173.774,19.93
		 M172.033,17.768c-0.093-0.705-0.517-1.128-1.175-1.128c-0.656,0-1.033,0.375-1.126,1.128H172.033z M172.033,17.768"/>
	<path d="M173.774,19.93c-0.565,0.894-1.506,1.363-2.728,1.363c-1.927,0-3.148-1.082-3.148-2.82c0-1.741,1.269-3.008,3.009-3.008
		c1.691,0,3.006,1.268,2.867,3.29h-4.091c0,0.659,0.377,1.41,1.363,1.41c0.47,0,0.801-0.142,1.317-0.659L173.774,19.93z
		 M172.033,17.768c-0.093-0.705-0.517-1.128-1.175-1.128c-0.656,0-1.033,0.375-1.126,1.128H172.033z M172.033,17.768"/>
	<path d="M174.618,15.604h2.681v0.52c0.563-0.424,1.033-0.612,1.599-0.612c0.752,0,1.692,0.423,1.692,1.88v2.492h0.798v1.268h-2.632
		v-3.525c0-0.47-0.188-0.612-0.517-0.612c-0.33,0-0.658,0.142-0.986,0.377v2.492h0.751v1.268h-3.386v-1.268h0.848v-3.009h-0.848
		V15.604"/>
	<path d="M174.618,15.604h2.681v0.52c0.563-0.424,1.033-0.612,1.599-0.612c0.752,0,1.692,0.423,1.692,1.88v2.492h0.798v1.268h-2.632
		v-3.525c0-0.47-0.188-0.612-0.517-0.612c-0.33,0-0.658,0.142-0.986,0.377v2.492h0.751v1.268h-3.386v-1.268h0.848v-3.009h-0.848
		V15.604z M174.618,15.604"/>
	<path d="M181.811,15.604h0.705v-0.891l1.787-1.271v2.162h0.986v1.271h-0.986v2.397c0,0.47,0.093,0.563,0.47,0.563
		c0.186,0,0.281,0,0.563-0.093v1.222c-0.47,0.188-0.894,0.282-1.316,0.282c-0.705,0-1.457-0.328-1.457-1.314v-3.056h-0.751V15.604"
		/>
	<path d="M181.811,15.604h0.705v-0.891l1.787-1.271v2.162h0.986v1.271h-0.986v2.397c0,0.47,0.093,0.563,0.47,0.563
		c0.186,0,0.281,0,0.563-0.093v1.222c-0.47,0.188-0.894,0.282-1.316,0.282c-0.705,0-1.457-0.328-1.457-1.314v-3.056h-0.751V15.604z
		 M181.811,15.604"/>
	<path d="M192.34,21.198h-2.681v-0.424c-0.517,0.377-0.987,0.519-1.504,0.519c-1.175,0-2.021-0.754-2.021-1.741
		c0-1.08,0.939-1.88,2.304-1.88c0.517,0,0.8,0.095,1.271,0.235V17.58c0-0.565-0.424-0.986-1.082-0.986
		c-0.424,0-0.705,0.139-1.033,0.42l-1.459-0.235c0.47-0.89,1.316-1.314,2.681-1.314c1.833,0,2.632,0.659,2.632,2.115v2.304h0.894
		V21.198 M188.626,18.708c-0.471,0-0.799,0.281-0.799,0.705c0,0.421,0.328,0.751,0.752,0.751c0.375,0,0.658-0.142,1.129-0.565v-0.47
		C189.189,18.848,188.908,18.708,188.626,18.708L188.626,18.708z M188.626,18.708"/>
	<path d="M192.34,21.198h-2.681v-0.424c-0.517,0.377-0.987,0.519-1.504,0.519c-1.175,0-2.021-0.754-2.021-1.741
		c0-1.08,0.939-1.88,2.304-1.88c0.517,0,0.8,0.095,1.271,0.235V17.58c0-0.565-0.424-0.986-1.082-0.986
		c-0.424,0-0.705,0.139-1.033,0.42l-1.459-0.235c0.47-0.89,1.316-1.314,2.681-1.314c1.833,0,2.632,0.659,2.632,2.115v2.304h0.894
		V21.198z M188.626,18.708c-0.471,0-0.799,0.281-0.799,0.705c0,0.421,0.328,0.751,0.752,0.751c0.375,0,0.658-0.142,1.129-0.565
		v-0.47C189.189,18.848,188.908,18.708,188.626,18.708L188.626,18.708z M188.626,18.708"/>
	<polyline points="192.903,19.883 193.75,19.883 193.75,14.479 192.903,14.479 192.903,13.207 195.583,13.207 195.583,19.883 
		196.381,19.883 196.381,21.198 192.903,21.198 192.903,19.883 	"/>
	<path d="M192.903,19.883h0.848v-5.405h-0.848v-1.271h2.681v6.676h0.798v1.315h-3.479V19.883z M192.903,19.883"/>
	<path fill="#141412" d="M160.659,30.271c0,0.282,0.094,0.471,0.517,0.471c0.377,0,0.517-0.143,0.517-0.517v-1.317
		c0-0.424-0.093-0.658-0.234-0.986l-0.892-1.692c-0.188-0.331-0.284-0.754-0.284-1.036v-1.128c0-0.517,0.331-0.798,0.894-0.798
		c0.565,0,0.894,0.235,0.894,0.705v1.41h-0.377v-1.364c0-0.328-0.14-0.423-0.47-0.423c-0.328,0-0.47,0.188-0.47,0.47v1.224
		c0,0.235,0.049,0.47,0.188,0.751l0.894,1.691c0.188,0.377,0.328,0.751,0.328,1.175v1.456c0,0.517-0.235,0.801-0.94,0.801
		c-0.656,0-0.892-0.284-0.892-0.847v-1.363h0.375v1.316"/>
	<path d="M160.659,30.271c0,0.282,0.094,0.471,0.517,0.471c0.377,0,0.517-0.143,0.517-0.517v-1.317c0-0.424-0.093-0.658-0.234-0.986
		l-0.892-1.692c-0.188-0.331-0.284-0.754-0.284-1.036v-1.128c0-0.517,0.331-0.798,0.894-0.798c0.565,0,0.894,0.235,0.894,0.705v1.41
		h-0.377v-1.364c0-0.328-0.14-0.423-0.47-0.423c-0.328,0-0.47,0.188-0.47,0.47v1.224c0,0.235,0.049,0.47,0.188,0.751l0.894,1.691
		c0.188,0.377,0.328,0.751,0.328,1.175v1.456c0,0.517-0.235,0.801-0.94,0.801c-0.656,0-0.892-0.284-0.892-0.847v-1.363h0.375v1.316
		H160.659z M160.659,30.271"/>
	<polyline fill="#141412" points="169.261,23.548 168.507,23.548 168.507,23.22 170.437,23.22 170.437,23.548 169.683,23.548 
		169.683,31.022 169.261,31.022 169.261,23.548 	"/>
	<path d="M169.261,23.548h-0.754V23.22h1.93v0.328h-0.754v7.474h-0.422V23.548z M169.261,23.548"/>
	<path fill="#141412" d="M178.755,30.225c0,0.517-0.328,0.844-0.94,0.844c-0.611,0-0.939-0.281-0.939-0.844v-6.207
		c0-0.516,0.328-0.844,0.939-0.844c0.612,0,0.94,0.281,0.94,0.844V30.225 M178.332,24.018c0-0.328-0.188-0.516-0.517-0.516
		s-0.517,0.188-0.517,0.516v6.157c0,0.331,0.188,0.52,0.517,0.52s0.517-0.188,0.517-0.52V24.018z M178.332,24.018"/>
	<path d="M178.755,30.225c0,0.517-0.328,0.844-0.94,0.844c-0.611,0-0.939-0.281-0.939-0.844v-6.207c0-0.516,0.328-0.844,0.939-0.844
		c0.612,0,0.94,0.281,0.94,0.844V30.225z M178.332,24.018c0-0.328-0.188-0.516-0.517-0.516s-0.517,0.188-0.517,0.516v6.157
		c0,0.331,0.188,0.52,0.517,0.52s0.517-0.188,0.517-0.52V24.018z M178.332,24.018"/>
	<path fill="#141412" d="M185.806,23.22h0.986c0.517,0,0.894,0.235,0.894,0.705v2.304c0,0.421-0.142,0.705-0.658,0.751
		c0.377,0.046,0.658,0.235,0.658,0.705v3.29h-0.424v-3.29c0-0.282-0.14-0.565-0.609-0.565h-0.377v3.855h-0.424V23.22
		 M186.653,26.838c0.375,0,0.563-0.188,0.563-0.517v-2.304c0-0.328-0.188-0.47-0.517-0.47h-0.471v3.29H186.653z M186.653,26.838"/>
	<path d="M185.806,23.22h0.986c0.517,0,0.894,0.235,0.894,0.705v2.304c0,0.421-0.142,0.705-0.658,0.751
		c0.377,0.046,0.658,0.235,0.658,0.705v3.29h-0.424v-3.29c0-0.282-0.14-0.565-0.609-0.565h-0.377v3.855h-0.424V23.22H185.806z
		 M186.653,26.838c0.375,0,0.563-0.188,0.563-0.517v-2.304c0-0.328-0.188-0.47-0.517-0.47h-0.471v3.29H186.653z M186.653,26.838"/>
	<polyline fill="#141412" points="160.236,4.184 159.484,4.184 159.484,3.853 161.458,3.853 161.458,4.184 160.659,4.184 
		160.659,11.608 160.236,11.608 160.236,4.184 	"/>
	<path d="M160.236,4.184h-0.752V3.853h1.974v0.331h-0.799v7.425h-0.423V4.184z M160.236,4.184"/>
	<polyline fill="#141412" points="176.829,3.853 177.252,3.853 177.252,7.474 178.286,7.474 178.286,3.853 178.708,3.853 
		178.708,11.608 178.286,11.608 178.286,7.802 177.252,7.802 177.252,11.608 176.829,11.608 176.829,3.853 	"/>
	<path d="M176.829,3.853h0.424v3.621h1.033V3.853h0.423v7.755h-0.423V7.802h-1.033v3.807h-0.424V3.853z M176.829,3.853"/>
	<polyline fill="#141412" points="193.985,3.853 195.488,3.853 195.488,4.184 194.455,4.184 194.455,7.474 195.395,7.474 
		195.395,7.802 194.455,7.802 194.455,11.281 195.535,11.281 195.535,11.608 193.985,11.608 193.985,3.853 	"/>
	<path d="M193.985,3.853h1.503v0.331h-1.033v3.291h0.94v0.328h-0.94v3.479h1.08v0.328h-1.55V3.853z M193.985,3.853"/>
	<polyline fill="#141412" points="194.078,23.22 195.535,23.22 195.535,23.548 194.501,23.548 194.501,26.838 195.488,26.838 
		195.488,27.169 194.501,27.169 194.501,30.694 195.63,30.694 195.63,31.022 194.078,31.022 194.078,23.22 	"/>
	<path d="M194.078,23.22h1.457v0.328h-1.033v3.29h0.986v0.331h-0.986v3.525h1.129v0.328h-1.553V23.22z M194.078,23.22"/>
	<path fill="#141412" d="M197.65,30.225v-0.331h0.142c0.188,0,0.282,0.047,0.282,0.143c0,0.139-0.094,0.188-0.282,0.188H197.65
		 M197.51,29.801v0.894h0.093v-0.377h0.047c0.188,0,0.284,0.046,0.424,0.377h0.142c-0.142-0.331-0.188-0.377-0.281-0.424
		c0.186,0,0.281-0.096,0.281-0.234c0-0.143-0.096-0.235-0.281-0.235H197.51z M197.885,29.377c-0.471,0-0.845,0.377-0.845,0.848
		c0,0.47,0.374,0.844,0.845,0.844c0.47,0,0.847-0.374,0.847-0.844C198.732,29.754,198.308,29.377,197.885,29.377L197.885,29.377z
		 M197.838,30.976c-0.424,0-0.752-0.33-0.752-0.751c0-0.424,0.328-0.755,0.752-0.755s0.752,0.331,0.752,0.755
		C198.59,30.646,198.262,30.976,197.838,30.976L197.838,30.976z M197.838,30.976"/>
	<path d="M197.65,30.225v-0.331h0.142c0.188,0,0.282,0.047,0.282,0.143c0,0.139-0.094,0.188-0.282,0.188H197.65z M197.51,29.801
		v0.894h0.093v-0.377h0.047c0.188,0,0.284,0.046,0.424,0.377h0.142c-0.142-0.331-0.188-0.377-0.281-0.424
		c0.186,0,0.281-0.096,0.281-0.234c0-0.143-0.096-0.235-0.281-0.235H197.51z M197.885,29.377c-0.471,0-0.845,0.377-0.845,0.848
		c0,0.47,0.374,0.844,0.845,0.844c0.47,0,0.847-0.374,0.847-0.844C198.732,29.754,198.308,29.377,197.885,29.377L197.885,29.377z
		 M197.838,30.976c-0.424,0-0.752-0.33-0.752-0.751c0-0.424,0.328-0.755,0.752-0.755s0.752,0.331,0.752,0.755
		C198.59,30.646,198.262,30.976,197.838,30.976L197.838,30.976z M197.838,30.976"/>
	<path d="M146.323,6.488c-5.875,0-10.623,4.747-10.623,10.622s4.747,10.622,10.623,10.622s10.623-4.747,10.623-10.622
		S152.199,6.488,146.323,6.488"/>
	<polyline fill="#141412" points="152.81,13.161 148.626,13.161 148.626,14.76 149.802,14.76 149.802,20.023 151.166,21.198 
		151.728,21.198 151.728,14.76 152.904,14.76 152.81,13.161 	"/>
	<polyline fill="#FFFFFF" points="149.802,20.023 149.802,14.76 148.626,14.76 148.626,13.161 152.81,13.161 152.81,14.76 
		151.635,14.76 151.635,21.151 151.166,21.151 149.802,20.023 	"/>
	<path fill="#141412" d="M139.319,14.76v4.793c0,0.94,0.752,1.646,1.692,1.646h0.519l1.691-1.364
		c0.328-0.282,0.375-0.609,0.375-0.891v-1.224h-1.738v1.645c0,0.235-0.188,0.377-0.377,0.377c-0.187,0-0.375-0.188-0.375-0.377
		v-4.558c0-0.235,0.14-0.377,0.375-0.377c0.235,0,0.377,0.188,0.377,0.377v1.645h1.738v-1.738c0-1.083-0.798-1.741-2.115-1.741
		C140.12,12.972,139.319,13.631,139.319,14.76"/>
	<path fill="#FFFFFF" d="M143.221,19.834c0.328-0.235,0.375-0.563,0.375-0.845v-1.175h-1.691v1.645c0,0.235-0.188,0.423-0.423,0.423
		c-0.235,0-0.421-0.188-0.421-0.423v-4.654c0-0.235,0.186-0.424,0.421-0.424c0.235,0,0.423,0.189,0.423,0.424v1.645h1.691V14.76
		c0-0.94-0.609-1.691-2.115-1.691c-1.55,0-2.115,0.751-2.115,1.691v4.793c0,0.94,0.754,1.646,1.694,1.646h0.517L143.221,19.834"/>
	<path fill="#141412" d="M147.64,13.161h-2.35l-1.364,6.203c0,0,2.539-2.066,2.585-2.066c0.046,0.046,2.678,2.254,2.678,2.254
		L147.64,13.161 M146.465,14.713c0.047,0.281,0.375,2.019,0.421,2.115h-0.798C146.088,16.732,146.416,14.995,146.465,14.713
		L146.465,14.713z M146.465,14.713"/>
	<path fill="#FFFFFF" d="M147.64,13.207h-2.35l-1.364,6.064l2.539-2.022l2.632,2.211L147.64,13.207 M146.042,16.829l0.47-2.304
		l0.47,2.304H146.042z M146.042,16.829"/>
	<polyline fill="#FFCC00" points="150.553,21.151 146.465,17.719 142.235,21.151 150.553,21.151 	"/>
	<path fill="#EDD020" d="M146.465,17.815l3.9,3.244h-7.99L146.465,17.815 M146.465,17.673l-4.418,3.525h8.649L146.465,17.673z
		 M146.465,17.673"/>
</g>
</svg>
